# File created by Blade
# Date/Time:  Thu Jan 22 18:06:37 2015
#---------------------------------------------------------
:version 1.10
:name HOM
:units
  mass 1.0
  length 1.000000
  angle deg
:documentation
     Acclaim Skeleton File
:root
   axis xyz
   order TX TY TZ RX RY RZ
   position 0.000000 0.000000 0.000000
   orientation 0 0 0
:bonedata
   begin
      id 1
      name RightUpLeg_dum
      direction -1.000000 0.000000 0.000000
      length 4.478084
      axis 0.0 0.0 0.0 xyz
   end
   begin
      id 2
      name LeftUpLeg_dum
      direction 1.000000 0.000000 0.000000
      length 4.478084
      axis 0.0 0.0 0.0 xyz
   end
   begin
      id 3
      name Spine_dum
      direction 0.000000 1.000000 0.000000
      length 6.068208
      axis 0.0 0.0 0.0 xyz
   end
   begin
      id 4
      name RightUpLeg
      direction 0.000000 -1.000000 0.000000
      length 16.405774
      axis 0.0 0.0 0.0 xyz
      dof rx ry rz
   end
   begin
      id 5
      name RightLeg
      direction 0.000000 -1.000000 0.000000
      length 14.644143
      axis 0.0 0.0 0.0 xyz
      dof rx ry rz
   end
   begin
      id 6
      name RightFoot
      direction 0.000000 -0.258819 0.965926
      length 5.806150
      axis 15.0 0.0 0.0 xyz
      dof rx ry rz
   end
   begin
      id 7
      name RightToeBase
      direction 0.000000 0.000000 1.000000
      length 2.952750
      axis 0.0 0.0 0.0 xyz
      dof rx ry rz
   end
   begin
      id 8
      name LeftUpLeg
      direction 0.000000 -1.000000 0.000000
      length 16.405774
      axis 0.0 0.0 0.0 xyz
      dof rx ry rz
   end
   begin
      id 9
      name LeftLeg
      direction 0.000000 -1.000000 0.000000
      length 14.644143
      axis 0.0 0.0 0.0 xyz
      dof rx ry rz
   end
   begin
      id 10
      name LeftFoot
      direction 0.000000 -0.258819 0.965926
      length 5.806150
      axis 15.0 0.0 0.0 xyz
      dof rx ry rz
   end
   begin
      id 11
      name LeftToeBase
      direction 0.000000 0.000000 1.000000
      length 2.952750
      axis 0.0 0.0 0.0 xyz
      dof rx ry rz
   end
   begin
      id 12
      name Spine
      direction 0.000000 1.000000 0.000000
      length 0.000000
      axis 0.0 0.0 0.0 xyz
      dof rx ry rz
   end
   begin
      id 13
      name Spine_dum1
      direction 0.000000 1.000000 0.000000
      length 10.013923
      axis 0.0 0.0 0.0 xyz
   end
   begin
      id 14
      name Spine_dum2
      direction 0.000000 1.000000 0.000000
      length 10.013923
      axis 0.0 0.0 0.0 xyz
   end
   begin
      id 15
      name Spine_dum3
      direction 0.000000 1.000000 0.000000
      length 15.777476
      axis 0.0 0.0 0.0 xyz
   end
   begin
      id 16
      name RightShoulder
      direction -1.000000 0.000000 0.000000
      length 7.190220
      axis 0.0 0.0 90.0 xyz
      dof rx ry rz
   end
   begin
      id 17
      name RightArm
      direction -1.000000 0.000000 0.000000
      length 10.177469
      axis 0.0 0.0 90.0 xyz
      dof rx ry rz
   end
   begin
      id 18
      name RightForeArm
      direction -1.000000 0.000000 0.000000
      length 8.392114
      axis 0.0 0.0 90.0 xyz
      dof ry rz rx
   end
   begin
      id 19
      name RightHand
      direction -1.000000 0.000000 0.000000
      length 0.000000
      axis 0.0 0.0 90.0 xyz
      dof rx ry rz
   end
   begin
      id 20
      name RightHand_dum1
      direction -1.000000 0.000000 0.000000
      length 3.937000
      axis 0.0 0.0 90.0 xyz
   end
   begin
      id 21
      name RightHand_dum2
      direction 0.000000 0.000000 0.000000
      length 0.000000
      axis 0.0 0.0 90.0 xyz
   end
   begin
      id 22
      name RightHandThumb1
      direction 0.000000 0.000000 1.000000
      length 3.937000
      axis 0.0 0.0 90.0 xyz
      dof rx rz ry
   end
   begin
      id 23
      name LeftShoulder
      direction 1.000000 0.000000 0.000000
      length 7.190220
      axis 0.0 0.0 -90.0 xyz
      dof rx ry rz
   end
   begin
      id 24
      name LeftArm
      direction 1.000000 0.000000 0.000000
      length 10.177469
      axis 0.0 0.0 -90.0 xyz
      dof rx ry rz
   end
   begin
      id 25
      name LeftForeArm
      direction 1.000000 0.000000 0.000000
      length 8.392114
      axis 0.0 0.0 -90.0 xyz
      dof ry rz rx
   end
   begin
      id 26
      name LeftHand
      direction 1.000000 0.000000 0.000000
      length 0.000000
      axis 0.0 0.0 -90.0 xyz
      dof rx ry rz
   end
   begin
      id 27
      name LeftHand_dum1
      direction 1.000000 0.000000 0.000000
      length 3.937000
      axis 0.0 0.0 -90.0 xyz
   end
   begin
      id 28
      name LeftHand_dum2
      direction 0.000000 0.000000 0.000000
      length 0.000000
      axis 0.0 0.0 -90.0 xyz
   end
   begin
      id 29
      name LeftHandThumb1
      direction 0.000000 0.000000 1.000000
      length 3.937000
      axis 0.0 0.0 -90.0 xyz
      dof rx rz ry
   end
   begin
      id 30
      name Head
      direction 0.000000 1.000000 0.000000
      length 4.527550
      axis 0.0 0.0 0.0 xyz
      dof rx ry rz
   end
:hierarchy
   begin
      root RightUpLeg_dum LeftUpLeg_dum Spine_dum
      RightUpLeg_dum RightUpLeg
      LeftUpLeg_dum LeftUpLeg
      Spine_dum Spine
      RightUpLeg RightLeg
      RightLeg RightFoot
      RightFoot RightToeBase
      LeftUpLeg LeftLeg
      LeftLeg LeftFoot
      LeftFoot LeftToeBase
      Spine Spine_dum1 Spine_dum2 Spine_dum3
      Spine_dum1 RightShoulder
      Spine_dum2 LeftShoulder
      Spine_dum3 Head
      RightShoulder RightArm
      RightArm RightForeArm
      RightForeArm RightHand
      RightHand RightHand_dum1 RightHand_dum2
      RightHand_dum2 RightHandThumb1
      LeftShoulder LeftArm
      LeftArm LeftForeArm
      LeftForeArm LeftHand
      LeftHand LeftHand_dum1 LeftHand_dum2
      LeftHand_dum2 LeftHandThumb1
   end

# File created by Blade
# Date/Time:  Thu Jan 22 18:06:27 2015
# Frame Rate: 120.000 fps
#------------------------------------------------------
:FULLY-SPECIFIED
:DEGREES
1152
root 0.769970 33.048194 -1.951572 6.759905 18.771689 1.783337
RightUpLeg -26.033694 18.347022 -1.629929
RightLeg 79.004292 -0.000000 -0.000000
RightFoot -14.055870 -10.200324 -1.545255
RightToeBase -6.691973 -0.000000 0.000000
LeftUpLeg -0.592408 -9.299866 -8.426230
LeftLeg 1.274733 -0.000000 -0.000000
LeftFoot -7.738997 -6.779087 -4.261817
LeftToeBase 9.461790 -0.000000 -0.000000
Spine -9.964938 -8.462723 -0.525618
RightShoulder -19.522981 -19.961947 -22.195285
RightArm 15.294324 27.739724 51.916774
RightForeArm -8.323660 -0.000000 15.150370
RightHand 7.788706 -0.000000 8.869234
RightHandThumb1 -24.326973 -0.000000 -32.862282
LeftShoulder -20.479716 1.569267 24.364510
LeftArm 33.555724 -20.589835 -60.629519
LeftForeArm 5.393564 -0.000000 46.555320
LeftHand 0.879847 -0.000000 34.891674
LeftHandThumb1 -26.253704 0.000000 33.147579
Head 18.018835 3.037629 -2.588209
1153
root 0.772616 33.047616 -1.950853 6.799364 18.764484 1.779871
RightUpLeg -25.980062 18.158266 -1.568137
RightLeg 79.276930 -0.000000 -0.000000
RightFoot -13.920371 -10.312389 -1.917859
RightToeBase -6.372432 -0.000000 0.000000
LeftUpLeg -0.621446 -9.322994 -8.423155
LeftLeg 1.253966 -0.000000 -0.000000
LeftFoot -7.721745 -6.749168 -4.198182
LeftToeBase 9.358148 -0.000000 -0.000000
Spine -9.973775 -8.422554 -0.509371
RightShoulder -19.535944 -19.960305 -22.179910
RightArm 15.332357 27.722770 51.924401
RightForeArm -8.345414 -0.000000 15.171264
RightHand 7.766683 -0.000000 8.912439
RightHandThumb1 -24.326973 -0.000000 -32.862282
LeftShoulder -20.447164 1.514113 24.402755
LeftArm 33.491415 -20.579855 -60.657275
LeftForeArm 5.215159 -0.000000 46.631588
LeftHand 0.962295 -0.000000 35.010508
LeftHandThumb1 -26.253704 0.000000 33.147579
Head 17.975288 3.015915 -2.590973
1154
root 0.775151 33.046728 -1.950746 6.839346 18.743502 1.776832
RightUpLeg -25.922067 17.996934 -1.518546
RightLeg 79.489499 -0.000000 -0.000000
RightFoot -13.716060 -10.169465 -1.813648
RightToeBase -5.856279 -0.000000 0.000000
LeftUpLeg -0.656299 -9.356909 -8.423144
LeftLeg 1.244210 -0.000000 -0.000000
LeftFoot -7.719341 -6.685294 -4.109560
LeftToeBase 9.244265 -0.000000 -0.000000
Spine -9.986610 -8.386111 -0.492795
RightShoulder -19.532908 -19.974118 -22.164293
RightArm 15.401957 27.708130 51.945216
RightForeArm -8.313413 -0.000000 15.165845
RightHand 7.783611 0.000000 8.958312
RightHandThumb1 -24.326973 -0.000000 -32.862282
LeftShoulder -20.437947 1.472458 24.416739
LeftArm 33.497590 -20.477479 -60.609619
LeftForeArm 5.300351 -0.000000 46.572245
LeftHand 0.868430 0.000000 35.342362
LeftHandThumb1 -26.253704 0.000000 33.147579
Head 17.948726 3.024846 -2.586773
1155
root 0.776570 33.046148 -1.952894 6.875070 18.738799 1.768413
RightUpLeg -25.852933 17.832118 -1.460879
RightLeg 79.609026 -0.000000 -0.000000
RightFoot -13.558476 -10.166402 -1.875824
RightToeBase -5.831488 -0.000000 0.000000
LeftUpLeg -0.698546 -9.392114 -8.412459
LeftLeg 1.247201 -0.000000 -0.000000
LeftFoot -7.731296 -6.649852 -4.088818
LeftToeBase 9.209348 -0.000000 -0.000000
Spine -9.994547 -8.385462 -0.467524
RightShoulder -19.487035 -19.949930 -22.173854
RightArm 15.428130 27.730380 51.980761
RightForeArm -8.342182 -0.000000 15.186960
RightHand 7.790565 -0.000000 8.967029
RightHandThumb1 -24.326973 -0.000000 -32.862282
LeftShoulder -20.406272 1.437153 24.434883
LeftArm 33.412308 -20.457340 -60.554378
LeftForeArm 5.410915 0.000000 46.605779
LeftHand 0.866476 -0.000000 35.189184
LeftHandThumb1 -26.253704 0.000000 33.147579
Head 17.949160 3.064728 -2.573919
1156
root 0.779349 33.045082 -1.956017 6.921056 18.707516 1.778844
RightUpLeg -25.787196 17.728620 -1.464267
RightLeg 79.650238 -0.000000 -0.000000
RightFoot -13.477083 -9.983365 -1.605888
RightToeBase -6.677574 -0.000000 0.000000
LeftUpLeg -0.742319 -9.430808 -8.423582
LeftLeg 1.240778 -0.000000 -0.000000
LeftFoot -7.725752 -6.597334 -4.085883
LeftToeBase 9.205698 -0.000000 -0.000000
Spine -9.999567 -8.359726 -0.463784
RightShoulder -19.468786 -19.948872 -22.170723
RightArm 15.478167 27.670403 51.992933
RightForeArm -8.261022 0.000000 15.195371
RightHand 7.773853 -0.000000 8.947476
RightHandThumb1 -24.326973 -0.000000 -32.862282
LeftShoulder -20.402487 1.413068 24.429303
LeftArm 33.390286 -20.413716 -60.504914
LeftForeArm 5.242996 0.000000 46.645442
LeftHand 0.962786 -0.000000 35.584188
LeftHandThumb1 -26.253704 0.000000 33.147579
Head 17.940518 3.110942 -2.562236
1157
root 0.780049 33.044135 -1.955755 6.949935 18.667563 1.766417
RightUpLeg -25.698397 17.621090 -1.418232
RightLeg 79.649532 -0.000000 -0.000000
RightFoot -13.410695 -10.028122 -1.739773
RightToeBase -5.686557 -0.000000 0.000000
LeftUpLeg -0.770002 -9.430148 -8.412148
LeftLeg 1.233327 -0.000000 -0.000000
LeftFoot -7.742793 -6.566870 -4.015481
LeftToeBase 9.134025 -0.000000 -0.000000
Spine -9.996491 -8.321637 -0.455542
RightShoulder -19.456250 -19.946440 -22.160216
RightArm 15.536003 27.702209 52.058581
RightForeArm -8.353559 -0.000000 15.225905
RightHand 7.744953 -0.000000 8.844763
RightHandThumb1 -24.326973 -0.000000 -32.862282
LeftShoulder -20.414482 1.409069 24.441433
LeftArm 33.439076 -20.378096 -60.516936
LeftForeArm 5.394049 -0.000000 46.635193
LeftHand 0.853231 -0.000000 34.831492
LeftHandThumb1 -26.253704 0.000000 33.147579
Head 17.939116 3.147568 -2.513919
1158
root 0.781930 33.042920 -1.955469 6.976096 18.602138 1.765078
RightUpLeg -25.603311 17.605736 -1.379490
RightLeg 79.581558 -0.000000 -0.000000
RightFoot -13.327412 -10.013200 -1.742893
RightToeBase -5.839899 -0.000000 0.000000
LeftUpLeg -0.781966 -9.420301 -8.416157
LeftLeg 1.206390 -0.000000 -0.000000
LeftFoot -7.739881 -6.530482 -4.015231
LeftToeBase 9.105513 -0.000000 -0.000000
Spine -9.982382 -8.263539 -0.466608
RightShoulder -19.427355 -19.911386 -22.135318
RightArm 15.545349 27.679783 52.056020
RightForeArm -8.324330 -0.000000 15.240812
RightHand 7.796598 -0.000000 8.954353
RightHandThumb1 -24.326973 -0.000000 -32.862282
LeftShoulder -20.425621 1.583298 24.382697
LeftArm 33.621638 -20.428689 -60.552076
LeftForeArm 5.244808 0.000000 46.697070
LeftHand 0.848232 -0.000000 35.190111
LeftHandThumb1 -26.253704 0.000000 33.147579
Head 17.936590 3.174757 -2.475676
1159
root 0.784606 33.040884 -1.957636 7.010351 18.545933 1.784439
RightUpLeg -25.501864 17.590785 -1.377362
RightLeg 79.461225 -0.000000 -0.000000
RightFoot -13.277442 -9.938504 -1.720110
RightToeBase -5.976050 -0.000000 0.000000
LeftUpLeg -0.810665 -9.426718 -8.440741
LeftLeg 1.206431 -0.000000 -0.000000
LeftFoot -7.753758 -6.473151 -4.026106
LeftToeBase 9.125482 -0.000000 -0.000000
Spine -9.969702 -8.222114 -0.487532
RightShoulder -19.409412 -19.850623 -22.149949
RightArm 15.563962 27.647918 52.097093
RightForeArm -8.330817 -0.000000 15.258856
RightHand 7.755525 -0.000000 8.938164
RightHandThumb1 -24.326973 -0.000000 -32.862282
LeftShoulder -20.454513 1.471671 24.416678
LeftArm 33.557039 -20.325951 -60.500271
LeftForeArm 5.187035 -0.000000 46.721278
LeftHand 0.774860 -0.000000 35.338966
LeftHandThumb1 -26.253704 0.000000 33.147579
Head 17.935865 3.175909 -2.451384
1160
root 0.787860 33.039060 -1.958584 7.045257 18.466651 1.795825
RightUpLeg -25.413563 17.547636 -1.393149
RightLeg 79.299690 -0.000000 -0.000000
RightFoot -13.269808 -9.853137 -1.828087
RightToeBase -5.894728 -0.000000 0.000000
LeftUpLeg -0.834198 -9.396586 -8.463467
LeftLeg 1.187870 -0.000000 -0.000000
LeftFoot -7.765482 -6.453355 -4.133387
LeftToeBase 9.283964 -0.000000 -0.000000
Spine -9.973380 -8.157490 -0.504867
RightShoulder -19.371751 -19.804870 -22.158286
RightArm 15.555173 27.551107 52.084503
RightForeArm -8.294142 -0.000000 15.265618
RightHand 7.829527 -0.000000 8.918548
RightHandThumb1 -24.326973 -0.000000 -32.862282
LeftShoulder -20.453786 1.449211 24.412270
LeftArm 33.520408 -20.274320 -60.415293
LeftForeArm 5.155278 -0.000000 46.774152
LeftHand 0.789890 -0.000000 35.314125
LeftHandThumb1 -26.253704 0.000000 33.147579
Head 17.968837 3.182163 -2.425021
